<svg width="23" height="23" viewBox="0 0 23 23" fill="none" xmlns="http://www.w3.org/2000/svg">
<mask id="path-1-inside-1" fill="white">
<path d="M11.9336 11.7948C13.7238 11.7948 15.1751 10.1382 15.1751 8.09474C15.1751 6.05127 13.7238 4.3947 11.9336 4.3947C10.1434 4.3947 8.69208 6.05127 8.69208 8.09474C8.69208 10.1382 10.1434 11.7948 11.9336 11.7948Z"/>
<path d="M10.2047 12.4234L9.28632 19.0871H14.5808L13.6624 12.4234C13.1401 12.6929 12.5459 12.8545 11.9336 12.8545C11.3033 12.8545 10.727 12.6929 10.2047 12.4234Z"/>
</mask>
<path d="M19.2541 11.5C19.2541 15.5632 15.9602 18.8571 11.897 18.8571V19.8571C16.5125 19.8571 20.2541 16.1155 20.2541 11.5H19.2541ZM11.897 18.8571C7.83376 18.8571 4.53986 15.5632 4.53986 11.5H3.53986C3.53986 16.1155 7.28148 19.8571 11.897 19.8571V18.8571ZM4.53986 11.5C4.53986 7.43676 7.83376 4.14285 11.897 4.14285V3.14285C7.28148 3.14285 3.53986 6.88447 3.53986 11.5H4.53986ZM11.897 4.14285C15.9602 4.14285 19.2541 7.43676 19.2541 11.5H20.2541C20.2541 6.88447 16.5125 3.14285 11.897 3.14285V4.14285ZM10.2047 12.4234L10.6632 11.5347L9.4071 10.8867L9.21411 12.2869L10.2047 12.4234ZM9.28632 19.0871L8.29568 18.9506L8.13904 20.0871H9.28632V19.0871ZM14.5808 19.0871V20.0871H15.7281L15.5714 18.9506L14.5808 19.0871ZM13.6624 12.4234L14.653 12.2869L14.46 10.8867L13.2039 11.5347L13.6624 12.4234ZM14.1751 8.09474C14.1751 9.71432 13.0514 10.7948 11.9336 10.7948V12.7948C14.3963 12.7948 16.1751 10.5621 16.1751 8.09474H14.1751ZM11.9336 10.7948C10.8158 10.7948 9.69208 9.71432 9.69208 8.09474H7.69208C7.69208 10.5621 9.47089 12.7948 11.9336 12.7948V10.7948ZM9.69208 8.09474C9.69208 6.47517 10.8158 5.3947 11.9336 5.3947V3.3947C9.47089 3.3947 7.69208 5.62736 7.69208 8.09474H9.69208ZM11.9336 5.3947C13.0514 5.3947 14.1751 6.47517 14.1751 8.09474H16.1751C16.1751 5.62736 14.3963 3.3947 11.9336 3.3947V5.3947ZM9.21411 12.2869L8.29568 18.9506L10.277 19.2236L11.1954 12.56L9.21411 12.2869ZM9.28632 20.0871H14.5808V18.0871H9.28632V20.0871ZM15.5714 18.9506L14.653 12.2869L12.6717 12.56L13.5902 19.2236L15.5714 18.9506ZM13.2039 11.5347C12.8088 11.7385 12.3707 11.8545 11.9336 11.8545V13.8545C12.721 13.8545 13.4714 13.6472 14.1209 13.3121L13.2039 11.5347ZM11.9336 11.8545C11.4808 11.8545 11.0607 11.7398 10.6632 11.5347L9.74627 13.3121C10.3933 13.6459 11.1257 13.8545 11.9336 13.8545V11.8545Z" fill="#29AAE1" mask="url(#path-1-inside-1)"/>
</svg>
