<svg width="19" height="22" viewBox="0 0 19 22" fill="none" xmlns="http://www.w3.org/2000/svg">
<path fill-rule="evenodd" clip-rule="evenodd" d="M17.6073 7.71013C16.5763 6.42538 15.1298 5.68213 13.7643 5.68213C11.9578 5.68213 11.1945 6.54038 9.94128 6.54038C8.64953 6.54038 7.66728 5.68338 6.10478 5.68338C4.57003 5.68338 2.93828 6.61563 1.90378 8.20888C0.448034 10.4494 0.694534 14.6649 3.05503 18.2571C3.89928 19.5416 5.02678 20.9861 6.50103 20.9999C7.81128 21.0119 8.18203 20.1641 9.95978 20.1541C11.7378 20.1444 12.074 21.0091 13.384 20.9969C14.8583 20.9829 16.0478 19.3834 16.8915 18.0986C17.4963 17.1784 17.7215 16.7134 18.1913 15.6731C14.7785 14.3836 14.2298 9.56138 17.6073 7.71013V7.71013Z" stroke="white"/>
<path fill-rule="evenodd" clip-rule="evenodd" d="M12.394 4.247C13.0503 3.405 13.5488 2.2155 13.3678 1C12.2958 1.074 11.0418 1.75575 10.3098 2.645C9.6453 3.452 9.09655 4.64875 9.31005 5.812C10.4803 5.84825 11.6913 5.149 12.394 4.247V4.247Z" stroke="white"/>
</svg>
