<svg width="12" height="12" viewBox="0 0 12 12" fill="none" xmlns="http://www.w3.org/2000/svg">
<path d="M11.8 6.80001H11.6V6.20001C11.5995 5.80286 11.364 5.44366 11 5.28481V2.20001C11 2.12051 10.9529 2.04861 10.88 2.01681C10.958 1.89176 10.9996 1.74741 11 1.60001C11 1.15819 10.6418 0.800011 10.2 0.800011C9.75817 0.800011 9.4 1.15819 9.4 1.60001C9.40083 1.74086 9.43923 1.87894 9.5112 2.00001H2.4888C2.56078 1.87894 2.59917 1.74086 2.6 1.60001C2.6 1.15819 2.24183 0.800011 1.8 0.800011C1.35818 0.800011 1 1.15819 1 1.60001C1.00042 1.74741 1.04198 1.89176 1.12 2.01681C1.04715 2.04861 1.00005 2.12051 1 2.20001V5.28481C0.636 5.44366 0.400525 5.80286 0.4 6.20001V6.80001H0.2C0.08955 6.80001 0 6.88956 0 7.00001V9.80001C0 9.91046 0.08955 10 0.2 10H0.4V11C0.4 11.1105 0.48955 11.2 0.6 11.2H1.4C1.51045 11.2 1.6 11.1105 1.6 11V10H10.4V11C10.4 11.1105 10.4896 11.2 10.6 11.2H11.4C11.5105 11.2 11.6 11.1105 11.6 11V10H11.8C11.9104 10 12 9.91046 12 9.80001V7.00001C12 6.88956 11.9104 6.80001 11.8 6.80001ZM10.2 1.20001C10.4209 1.20001 10.6 1.37909 10.6 1.60001C10.6 1.82094 10.4209 2.00001 10.2 2.00001C9.97908 2.00001 9.8 1.82094 9.8 1.60001C9.8 1.37909 9.97908 1.20001 10.2 1.20001ZM1.8 1.20001C2.02093 1.20001 2.2 1.37909 2.2 1.60001C2.2 1.82094 2.02093 2.00001 1.8 2.00001C1.57907 2.00001 1.4 1.82094 1.4 1.60001C1.4 1.37909 1.57907 1.20001 1.8 1.20001ZM1.4 2.40001H10.6V5.20001H9.7948C9.92715 5.02794 9.99928 4.81711 10 4.60001V4.20001C9.99935 3.64801 9.552 3.20066 9 3.20001H7.4C6.848 3.20066 6.40065 3.64801 6.4 4.20001V4.60001C6.40072 4.81711 6.47285 5.02794 6.6052 5.20001H5.3948C5.52715 5.02794 5.59928 4.81711 5.6 4.60001V4.20001C5.59935 3.64801 5.152 3.20066 4.6 3.20001H3C2.448 3.20066 2.00065 3.64801 2 4.20001V4.60001C2.00073 4.81711 2.07285 5.02794 2.2052 5.20001H1.4V2.40001ZM9.6 4.20001V4.60001C9.6 4.93139 9.33138 5.20001 9 5.20001H7.4C7.06862 5.20001 6.8 4.93139 6.8 4.60001V4.20001C6.8 3.86864 7.06862 3.60001 7.4 3.60001H9C9.33138 3.60001 9.6 3.86864 9.6 4.20001ZM5.2 4.20001V4.60001C5.2 4.93139 4.93138 5.20001 4.6 5.20001H3C2.66863 5.20001 2.4 4.93139 2.4 4.60001V4.20001C2.4 3.86864 2.66863 3.60001 3 3.60001H4.6C4.93138 3.60001 5.2 3.86864 5.2 4.20001ZM0.8 6.20001C0.8 5.86864 1.06862 5.60001 1.4 5.60001H10.6C10.9314 5.60001 11.2 5.86864 11.2 6.20001V6.80001H0.8V6.20001ZM1.2 10.8H0.8V10H1.2V10.8ZM11.2 10.8H10.8V10H11.2V10.8ZM11.6 9.60001H0.4V7.20001H11.6V9.60001Z" fill="black"/>
<path d="M1.80005 8.80002H1.00005C0.889599 8.80002 0.800049 8.88957 0.800049 9.00002C0.800049 9.11047 0.889599 9.20002 1.00005 9.20002H1.80005C1.9105 9.20002 2.00005 9.11047 2.00005 9.00002C2.00005 8.88957 1.9105 8.80002 1.80005 8.80002Z" fill="black"/>
<path d="M11 8.80002H2.60002C2.48957 8.80002 2.40002 8.88957 2.40002 9.00002C2.40002 9.11047 2.48957 9.20002 2.60002 9.20002H11C11.1105 9.20002 11.2 9.11047 11.2 9.00002C11.2 8.88957 11.1105 8.80002 11 8.80002Z" fill="black"/>
</svg>
