<svg width="22" height="22" viewBox="0 0 22 22" fill="none" xmlns="http://www.w3.org/2000/svg">
<path d="M9.51672 2C9.51672 1.30964 8.95708 0.75 8.26672 0.75H2.00006C1.3097 0.75 0.750057 1.30964 0.750057 2V8.26667C0.750057 8.95702 1.3097 9.51667 2.00006 9.51667H8.26672C8.95708 9.51667 9.51672 8.95702 9.51672 8.26667V2Z" stroke="#5C5B5C" stroke-width="1.5"/>
<path d="M21.25 2C21.25 1.30964 20.6904 0.75 20 0.75H13.7333C13.043 0.75 12.4833 1.30964 12.4833 2V8.26667C12.4833 8.95702 13.043 9.51667 13.7333 9.51667H20C20.6904 9.51667 21.25 8.95702 21.25 8.26667V2Z" stroke="#5C5B5C" stroke-width="1.5"/>
<path d="M21.25 13.7333C21.25 13.043 20.6904 12.4833 20 12.4833H13.7333C13.043 12.4833 12.4833 13.043 12.4833 13.7333V20C12.4833 20.6904 13.043 21.25 13.7333 21.25H20C20.6904 21.25 21.25 20.6904 21.25 20V13.7333Z" stroke="#5C5B5C" stroke-width="1.5"/>
<path d="M9.51672 13.7333C9.51672 13.043 8.95708 12.4833 8.26672 12.4833H2.00006C1.3097 12.4833 0.750057 13.043 0.750057 13.7333V20C0.750057 20.6904 1.3097 21.25 2.00006 21.25H8.26672C8.95708 21.25 9.51672 20.6904 9.51672 20V13.7333Z" stroke="#5C5B5C" stroke-width="1.5"/>
</svg>
