<svg width="23" height="23" viewBox="0 0 23 23" fill="none" xmlns="http://www.w3.org/2000/svg">
<path d="M2.55736 6.87948L5.38361 9.11073M2.5311 16.067L5.3661 13.8357M15.2361 16.8895L18.0624 19.1207M21.5624 11.4995C21.5604 12.0867 21.5048 12.6724 21.3961 13.2495C21.0119 15.421 19.9231 17.4055 18.2981 18.8963C16.6731 20.3872 14.6023 21.3013 12.4058 21.4973C10.2093 21.6934 8.00932 21.1606 6.14593 19.9812C4.28254 18.8019 2.85947 17.0416 2.09666 14.9724C1.33385 12.9033 1.27376 10.6406 1.9257 8.53386C2.57763 6.42717 3.90529 4.59385 5.70346 3.31725C7.50164 2.04064 9.67023 1.39183 11.8741 1.47109C14.0779 1.55034 16.1943 2.35326 17.8961 3.75573L15.4286 6.24948C14.2987 5.39244 12.918 4.9312 11.4999 4.93698C10.2769 4.93561 9.07798 5.27597 8.03819 5.91967C6.9984 6.56338 6.15917 7.48481 5.61513 8.58005C5.0711 9.67528 4.84393 10.9007 4.95923 12.1182C5.07453 13.3357 5.52771 14.4967 6.26768 15.4703C7.00764 16.444 8.00494 17.1915 9.14708 17.6285C10.2892 18.0656 11.5308 18.1748 12.7317 17.9439C13.9326 17.713 15.0451 17.1511 15.9437 16.3216C16.8423 15.4922 17.4912 14.4281 17.8174 13.2495H11.9374V9.74948H21.3961C21.5003 10.3271 21.556 10.9125 21.5624 11.4995Z" stroke="white" stroke-linecap="round" stroke-linejoin="round"/>
</svg>
