<svg width="20" height="20" viewBox="0 0 20 20" fill="none" xmlns="http://www.w3.org/2000/svg">
<path d="M7.50003 2.5H4.1667C3.72467 2.5 3.30075 2.67559 2.98819 2.98816C2.67563 3.30072 2.50003 3.72464 2.50003 4.16667V7.5C2.50003 7.94203 2.67563 8.36595 2.98819 8.67851C3.30075 8.99107 3.72467 9.16667 4.1667 9.16667H7.50003C7.94206 9.16667 8.36598 8.99107 8.67854 8.67851C8.9911 8.36595 9.1667 7.94203 9.1667 7.5V4.16667C9.1667 3.72464 8.9911 3.30072 8.67854 2.98816C8.36598 2.67559 7.94206 2.5 7.50003 2.5ZM15.8334 2.5H12.5C12.058 2.5 11.6341 2.67559 11.3215 2.98816C11.009 3.30072 10.8334 3.72464 10.8334 4.16667V7.5C10.8334 7.94203 11.009 8.36595 11.3215 8.67851C11.6341 8.99107 12.058 9.16667 12.5 9.16667H15.8334C16.2754 9.16667 16.6993 8.99107 17.0119 8.67851C17.3244 8.36595 17.5 7.94203 17.5 7.5V4.16667C17.5 3.72464 17.3244 3.30072 17.0119 2.98816C16.6993 2.67559 16.2754 2.5 15.8334 2.5ZM7.50003 10.8333H4.1667C3.72467 10.8333 3.30075 11.0089 2.98819 11.3215C2.67563 11.634 2.50003 12.058 2.50003 12.5V15.8333C2.50003 16.2754 2.67563 16.6993 2.98819 17.0118C3.30075 17.3244 3.72467 17.5 4.1667 17.5H7.50003C7.94206 17.5 8.36598 17.3244 8.67854 17.0118C8.9911 16.6993 9.1667 16.2754 9.1667 15.8333V12.5C9.1667 12.058 8.9911 11.634 8.67854 11.3215C8.36598 11.0089 7.94206 10.8333 7.50003 10.8333ZM15.8334 10.8333H12.5C12.058 10.8333 11.6341 11.0089 11.3215 11.3215C11.009 11.634 10.8334 12.058 10.8334 12.5V15.8333C10.8334 16.2754 11.009 16.6993 11.3215 17.0118C11.6341 17.3244 12.058 17.5 12.5 17.5H15.8334C16.2754 17.5 16.6993 17.3244 17.0119 17.0118C17.3244 16.6993 17.5 16.2754 17.5 15.8333V12.5C17.5 12.058 17.3244 11.634 17.0119 11.3215C16.6993 11.0089 16.2754 10.8333 15.8334 10.8333Z" fill="#C4C4C4"/>
</svg>
