<svg width="23" height="23" viewBox="0 0 23 23" fill="none" xmlns="http://www.w3.org/2000/svg">
<mask id="path-1-inside-1" fill="white">
<path d="M11.897 19.3571C16.2364 19.3571 19.7541 15.8394 19.7541 11.5C19.7541 7.16062 16.2364 3.64286 11.897 3.64286C7.55762 3.64286 4.03986 7.16062 4.03986 11.5C4.03986 15.8394 7.55762 19.3571 11.897 19.3571Z"/>
<path d="M9.61057 9.14286C9.7953 8.61774 10.1599 8.17494 10.6398 7.89289C11.1197 7.61084 11.684 7.50774 12.2326 7.60185C12.7813 7.69596 13.2789 7.9812 13.6374 8.40706C13.9959 8.83292 14.1921 9.37191 14.1913 9.92857C14.1913 11.5 11.8341 12.2857 11.8341 12.2857"/>
<path d="M12.6827 15.4286C12.6827 15.8625 12.3309 16.2143 11.897 16.2143C11.4631 16.2143 11.1113 15.8625 11.1113 15.4286C11.1113 14.9946 11.4631 14.6429 11.897 14.6429C12.3309 14.6429 12.6827 14.9946 12.6827 15.4286Z"/>
</mask>
<path d="M8.66724 8.81102C8.48396 9.33201 8.75774 9.90292 9.27873 10.0862C9.79972 10.2695 10.3706 9.99569 10.5539 9.4747L8.66724 8.81102ZM14.1913 9.92857L13.1913 9.92708V9.92857H14.1913ZM11.5179 11.337C10.994 11.5117 10.7108 12.078 10.8855 12.6019C11.0601 13.1259 11.6264 13.409 12.1504 13.2344L11.5179 11.337ZM18.7541 11.5C18.7541 15.2871 15.6841 18.3571 11.897 18.3571V20.3571C16.7887 20.3571 20.7541 16.3917 20.7541 11.5H18.7541ZM11.897 18.3571C8.1099 18.3571 5.03986 15.2871 5.03986 11.5H3.03986C3.03986 16.3917 7.00533 20.3571 11.897 20.3571V18.3571ZM5.03986 11.5C5.03986 7.71291 8.1099 4.64286 11.897 4.64286V2.64286C7.00533 2.64286 3.03986 6.60834 3.03986 11.5H5.03986ZM11.897 4.64286C15.6841 4.64286 18.7541 7.71291 18.7541 11.5H20.7541C20.7541 6.60834 16.7887 2.64286 11.897 2.64286V4.64286ZM10.5539 9.4747C10.6603 9.17236 10.8702 8.91742 11.1465 8.75503L10.1331 7.03076C9.44962 7.43247 8.93033 8.06312 8.66724 8.81102L10.5539 9.4747ZM11.1465 8.75503C11.4228 8.59263 11.7477 8.53327 12.0636 8.58745L12.4017 6.61624C11.6203 6.48221 10.8167 6.62905 10.1331 7.03076L11.1465 8.75503ZM12.0636 8.58745C12.3795 8.64164 12.666 8.80587 12.8724 9.05106L14.4024 7.76306C13.8919 7.15653 13.1831 6.75027 12.4017 6.61624L12.0636 8.58745ZM12.8724 9.05106C13.0788 9.29625 13.1918 9.60658 13.1913 9.92708L15.1913 9.93006C15.1925 9.13724 14.913 8.36959 14.4024 7.76306L12.8724 9.05106ZM13.1913 9.92857C13.1913 10.1834 12.9869 10.5118 12.458 10.8644C12.224 11.0204 11.9829 11.1417 11.7963 11.2246C11.7044 11.2654 11.6293 11.2954 11.5794 11.3144C11.5546 11.3239 11.5363 11.3305 11.5256 11.3343C11.5203 11.3362 11.5169 11.3374 11.5155 11.3378C11.5149 11.3381 11.5147 11.3381 11.5151 11.338C11.5153 11.3379 11.5156 11.3378 11.5161 11.3376C11.5163 11.3376 11.5166 11.3375 11.5169 11.3374C11.5171 11.3373 11.5173 11.3372 11.5174 11.3372C11.5176 11.3371 11.5179 11.337 11.8341 12.2857C12.1504 13.2344 12.1507 13.2343 12.151 13.2342C12.1511 13.2342 12.1514 13.2341 12.1516 13.234C12.152 13.2338 12.1525 13.2337 12.153 13.2335C12.1541 13.2332 12.1553 13.2328 12.1566 13.2323C12.1592 13.2314 12.1625 13.2303 12.1663 13.229C12.1739 13.2264 12.1837 13.223 12.1956 13.2187C12.2195 13.2102 12.2518 13.1985 12.2914 13.1834C12.3705 13.1533 12.4795 13.1096 12.6086 13.0522C12.864 12.9387 13.2121 12.7653 13.5674 12.5285C14.2171 12.0954 15.1913 11.2452 15.1913 9.92857H13.1913ZM11.6827 15.4286C11.6827 15.3102 11.7787 15.2143 11.897 15.2143V17.2143C12.8832 17.2143 13.6827 16.4148 13.6827 15.4286H11.6827ZM11.897 15.2143C12.0153 15.2143 12.1113 15.3102 12.1113 15.4286H10.1113C10.1113 16.4148 10.9108 17.2143 11.897 17.2143V15.2143ZM12.1113 15.4286C12.1113 15.5469 12.0153 15.6429 11.897 15.6429V13.6429C10.9108 13.6429 10.1113 14.4424 10.1113 15.4286H12.1113ZM11.897 15.6429C11.7787 15.6429 11.6827 15.5469 11.6827 15.4286H13.6827C13.6827 14.4424 12.8832 13.6429 11.897 13.6429V15.6429Z" fill="#29AAE1" mask="url(#path-1-inside-1)"/>
</svg>
