<svg width="22" height="22" viewBox="0 0 22 22" fill="none" xmlns="http://www.w3.org/2000/svg">
<path d="M19.1528 10.0832V10.0833V18.3333C19.1528 19.2892 18.3753 20.0667 17.4195 20.0667H4.58613C3.63027 20.0667 2.85279 19.2892 2.85279 18.3333L2.85279 10.0833L2.85279 10.0832C2.85268 9.97602 2.87376 9.86984 2.9148 9.77079C2.95585 9.67174 3.01607 9.58178 3.09199 9.50607L3.09209 9.50597L10.4254 2.17264L10.4255 2.17258C10.5012 2.09668 10.5912 2.03647 10.6903 1.99539C10.7894 1.95431 10.8956 1.93316 11.0028 1.93316C11.11 1.93316 11.2162 1.95431 11.3153 1.99539C11.4143 2.03647 11.5043 2.09668 11.5801 2.17258L11.5802 2.17264L18.9135 9.50597L18.9136 9.50607C18.9895 9.58178 19.0497 9.67174 19.0908 9.77079C19.1318 9.86984 19.1529 9.97602 19.1528 10.0832ZM9.06946 18.3333V18.4333H9.16946H12.8361H12.9361V18.3333V13.75V13.65H12.8361H9.16946H9.06946V13.75V18.3333ZM4.51542 10.3921L4.48613 10.4214V10.4628V18.3333V18.4333H4.58613H7.33613H7.43613V18.3333V13.75C7.43613 12.7942 8.21361 12.0167 9.16946 12.0167H12.8361C13.792 12.0167 14.5695 12.7942 14.5695 13.75V18.3333V18.4333H14.6695H17.4204H17.5204L17.5204 18.3333L17.5195 10.4628L17.5195 10.4214L17.4902 10.3921L11.0735 3.97547L11.0028 3.90476L10.9321 3.97547L4.51542 10.3921Z" fill="#BFBFBF" stroke="white" stroke-width="0.2"/>
</svg>
