<svg width="18" height="20" viewBox="0 0 18 20" fill="none" xmlns="http://www.w3.org/2000/svg">
<path d="M1.28571 4.85713L3.85713 1.42856H14.1429L16.7143 4.85713M1.28571 4.85713V16.8571C1.28571 17.3118 1.46632 17.7478 1.78781 18.0693C2.1093 18.3908 2.54533 18.5714 2.99999 18.5714H15C15.4547 18.5714 15.8907 18.3908 16.2122 18.0693C16.5337 17.7478 16.7143 17.3118 16.7143 16.8571V4.85713M1.28571 4.85713H16.7143M12.4286 8.2857C12.4286 9.19501 12.0673 10.0671 11.4244 10.7101C10.7814 11.353 9.90931 11.7143 8.99999 11.7143C8.09068 11.7143 7.21861 11.353 6.57563 10.7101C5.93264 10.0671 5.57142 9.19501 5.57142 8.2857" stroke="#151522" stroke-width="1.5" stroke-linecap="round" stroke-linejoin="round"/>
</svg>
