<svg width="25" height="25" viewBox="0 0 25 25" fill="none" xmlns="http://www.w3.org/2000/svg">
<path d="M12.887 2.12308C7.36697 2.12308 2.89697 6.60308 2.89697 12.1231C2.89697 17.6431 7.36697 22.1231 12.887 22.1231C18.417 22.1231 22.897 17.6431 22.897 12.1231C22.897 6.60308 18.417 2.12308 12.887 2.12308ZM19.817 8.12308H16.867C16.554 6.88454 16.0905 5.68897 15.487 4.56308C17.3111 5.19108 18.8481 6.4548 19.817 8.12308ZM12.897 4.16308C13.727 5.36308 14.377 6.69308 14.807 8.12308H10.987C11.417 6.69308 12.067 5.36308 12.897 4.16308ZM5.15697 14.1231C4.99697 13.4831 4.89697 12.8131 4.89697 12.1231C4.89697 11.4331 4.99697 10.7631 5.15697 10.1231H8.53697C8.45697 10.7831 8.39697 11.4431 8.39697 12.1231C8.39697 12.8031 8.45697 13.4631 8.53697 14.1231H5.15697ZM5.97697 16.1231H8.92697C9.24697 17.3731 9.70697 18.5731 10.307 19.6831C8.48094 19.0585 6.94281 17.7939 5.97697 16.1231ZM8.92697 8.12308H5.97697C6.94281 6.45226 8.48094 5.18765 10.307 4.56308C9.7034 5.68897 9.23995 6.88454 8.92697 8.12308ZM12.897 20.0831C12.067 18.8831 11.417 17.5531 10.987 16.1231H14.807C14.377 17.5531 13.727 18.8831 12.897 20.0831ZM15.237 14.1231H10.557C10.467 13.4631 10.397 12.8031 10.397 12.1231C10.397 11.4431 10.467 10.7731 10.557 10.1231H15.237C15.327 10.7731 15.397 11.4431 15.397 12.1231C15.397 12.8031 15.327 13.4631 15.237 14.1231ZM15.487 19.6831C16.087 18.5731 16.547 17.3731 16.867 16.1231H19.817C18.8481 17.7914 17.3111 19.0551 15.487 19.6831ZM17.257 14.1231C17.337 13.4631 17.397 12.8031 17.397 12.1231C17.397 11.4431 17.337 10.7831 17.257 10.1231H20.637C20.797 10.7631 20.897 11.4331 20.897 12.1231C20.897 12.8131 20.797 13.4831 20.637 14.1231H17.257Z" fill="#29AAE1" stroke="#EFF9FD" stroke-width="0.8"/>
</svg>
