<svg width="20" height="20" viewBox="0 0 20 20" fill="none" xmlns="http://www.w3.org/2000/svg">
<path d="M15.9043 2.5H4.09574C3.67253 2.5 3.26664 2.67559 2.96738 2.98816C2.66812 3.30072 2.5 3.72464 2.5 4.16667V7.5C2.5 7.94203 2.66812 8.36595 2.96738 8.67851C3.26664 8.99107 3.67253 9.16667 4.09574 9.16667H15.9043C16.3275 9.16667 16.7334 8.99107 17.0326 8.67851C17.3319 8.36595 17.5 7.94203 17.5 7.5V4.16667C17.5 3.72464 17.3319 3.30072 17.0326 2.98816C16.7334 2.67559 16.3275 2.5 15.9043 2.5ZM15.9043 10.8333H4.09574C3.67253 10.8333 3.26664 11.0089 2.96738 11.3215C2.66812 11.634 2.5 12.058 2.5 12.5V15.8333C2.5 16.2754 2.66812 16.6993 2.96738 17.0118C3.26664 17.3244 3.67253 17.5 4.09574 17.5H15.9043C16.3275 17.5 16.7334 17.3244 17.0326 17.0118C17.3319 16.6993 17.5 16.2754 17.5 15.8333V12.5C17.5 12.058 17.3319 11.634 17.0326 11.3215C16.7334 11.0089 16.3275 10.8333 15.9043 10.8333Z" fill="#C4C4C4"/>
</svg>
