<svg width="12" height="12" viewBox="0 0 12 12" fill="none" xmlns="http://www.w3.org/2000/svg">
<g clip-path="url(#clip0)">
<path d="M6 4.82812C6.12944 4.82812 6.23438 4.72319 6.23438 4.59375C6.23438 4.46431 6.12944 4.35938 6 4.35938C5.87056 4.35938 5.76562 4.46431 5.76562 4.59375C5.76562 4.72319 5.87056 4.82812 6 4.82812Z" fill="#322F2F"/>
<path d="M4.24219 6.9375H7.75782C7.88724 6.9375 7.99219 6.83257 7.99219 6.70312V4.50065L8.30843 4.77173C8.4071 4.85632 8.55502 4.84415 8.6389 4.74628C8.72314 4.648 8.71174 4.50004 8.61345 4.41579L6.15253 2.30643C6.06479 2.2312 5.93525 2.2312 5.84747 2.30643L3.38656 4.41579C3.28826 4.50002 3.27687 4.64798 3.36111 4.74628C3.44532 4.84457 3.5933 4.85594 3.69158 4.77173L4.00782 4.50065V6.70312C4.00782 6.83257 4.11277 6.9375 4.24219 6.9375ZM4.47657 4.09886L6 2.79307L7.52344 4.09886V6.46875H6.23438V5.53125C6.23438 5.4018 6.12943 5.29687 6 5.29687C5.87058 5.29687 5.76563 5.4018 5.76563 5.53125V6.46875H4.47657V4.09886Z" fill="#322F2F"/>
<path d="M5.83158 11.9286C5.87573 11.9742 5.93651 12 6 12C6.06349 12 6.12427 11.9742 6.16842 11.9286C7.6643 10.3846 10.4531 6.91104 10.4531 4.59375C10.4531 3.77588 10.2308 2.96508 9.81005 2.24902C9.74445 2.13741 9.60084 2.10009 9.48923 2.16565C9.37762 2.23123 9.34031 2.37485 9.40587 2.48646C9.78434 3.13062 9.98438 3.85931 9.98438 4.59375C9.98438 6.9649 6.77843 10.5803 6 11.4231C5.22157 10.5803 2.01562 6.9649 2.01562 4.59375C2.01562 2.35777 3.84026 0.46875 6 0.46875C6.71196 0.46875 7.41398 0.673617 8.03016 1.06123C8.13968 1.13016 8.28443 1.0972 8.35334 0.987633C8.42224 0.878062 8.38929 0.733359 8.27972 0.664453C7.58871 0.229758 6.80039 0 6 0C3.50269 0 1.54688 2.17406 1.54688 4.59375C1.54688 6.90863 4.33106 10.3798 5.83158 11.9286Z" fill="#322F2F"/>
<path d="M8.97656 1.75781C9.106 1.75781 9.21094 1.65288 9.21094 1.52344C9.21094 1.394 9.106 1.28906 8.97656 1.28906C8.84712 1.28906 8.74219 1.394 8.74219 1.52344C8.74219 1.65288 8.84712 1.75781 8.97656 1.75781Z" fill="#322F2F"/>
</g>
<defs>
<clipPath id="clip0">
<rect width="12" height="12" fill="white"/>
</clipPath>
</defs>
</svg>
