<svg width="24" height="29" viewBox="0 0 24 29" fill="none" xmlns="http://www.w3.org/2000/svg">
<path d="M20 10.1569H22.6667C23.0203 10.1569 23.3594 10.2974 23.6095 10.5474C23.8595 10.7975 24 11.1366 24 11.4902V27.4902C24 27.8438 23.8595 28.183 23.6095 28.433C23.3594 28.6831 23.0203 28.8235 22.6667 28.8235H1.33333C0.979711 28.8235 0.640573 28.6831 0.390524 28.433C0.140476 28.183 0 27.8438 0 27.4902V11.4902C0 11.1366 0.140476 10.7975 0.390524 10.5474C0.640573 10.2974 0.979711 10.1569 1.33333 10.1569H4V8.82355C4 6.70182 4.84285 4.66698 6.34315 3.16669C7.84344 1.6664 9.87827 0.823547 12 0.823547C14.1217 0.823547 16.1566 1.6664 17.6569 3.16669C19.1571 4.66698 20 6.70182 20 8.82355V10.1569ZM17.3333 10.1569V8.82355C17.3333 7.40906 16.7714 6.05251 15.7712 5.05231C14.771 4.05212 13.4145 3.49021 12 3.49021C10.5855 3.49021 9.22896 4.05212 8.22876 5.05231C7.22857 6.05251 6.66667 7.40906 6.66667 8.82355V10.1569H17.3333ZM10.6667 18.1569V20.8235H13.3333V18.1569H10.6667ZM5.33333 18.1569V20.8235H8V18.1569H5.33333ZM16 18.1569V20.8235H18.6667V18.1569H16Z" fill="#262626"/>
</svg>
