<svg width="22" height="22" viewBox="0 0 22 22" fill="none" xmlns="http://www.w3.org/2000/svg">
<path d="M19.5556 17.7222H2.44449C2.28241 17.7222 2.12697 17.6578 2.01236 17.5432C1.89776 17.4286 1.83337 17.2732 1.83337 17.1111C1.83337 16.949 1.89776 16.7936 2.01236 16.679C2.12697 16.5644 2.28241 16.5 2.44449 16.5H19.5556C19.7177 16.5 19.8731 16.5644 19.9877 16.679C20.1023 16.7936 20.1667 16.949 20.1667 17.1111C20.1667 17.2732 20.1023 17.4286 19.9877 17.5432C19.8731 17.6578 19.7177 17.7222 19.5556 17.7222Z" fill="#322F2F"/>
<path d="M19.5556 11.6111H2.44449C2.28241 11.6111 2.12697 11.5467 2.01236 11.4321C1.89776 11.3175 1.83337 11.1621 1.83337 11C1.83337 10.8379 1.89776 10.6825 2.01236 10.5679C2.12697 10.4533 2.28241 10.3889 2.44449 10.3889H19.5556C19.7177 10.3889 19.8731 10.4533 19.9877 10.5679C20.1023 10.6825 20.1667 10.8379 20.1667 11C20.1667 11.1621 20.1023 11.3175 19.9877 11.4321C19.8731 11.5467 19.7177 11.6111 19.5556 11.6111Z" fill="#322F2F"/>
<path d="M19.5556 5.49999H2.44449C2.28241 5.49999 2.12697 5.43561 2.01236 5.321C1.89776 5.2064 1.83337 5.05096 1.83337 4.88888C1.83337 4.72681 1.89776 4.57137 2.01236 4.45676C2.12697 4.34216 2.28241 4.27777 2.44449 4.27777H19.5556C19.7177 4.27777 19.8731 4.34216 19.9877 4.45676C20.1023 4.57137 20.1667 4.72681 20.1667 4.88888C20.1667 5.05096 20.1023 5.2064 19.9877 5.321C19.8731 5.43561 19.7177 5.49999 19.5556 5.49999Z" fill="#322F2F"/>
</svg>
