<svg width="20" height="20" viewBox="0 0 20 20" fill="none" xmlns="http://www.w3.org/2000/svg">
<g clip-path="url(#clip0)">
<path d="M0.124276 15.0874C0.23536 15.2295 0.405496 15.3125 0.585854 15.3125H19.414C19.5943 15.3125 19.7645 15.2295 19.8756 15.0874C19.9866 14.9454 20.0262 14.7601 19.9827 14.5853L16.467 0.444641C16.402 0.183411 16.1675 0 15.8984 0H4.10148C3.83231 0 3.59779 0.183411 3.53278 0.444641L0.0171595 14.5853C-0.0263281 14.7601 0.0131922 14.9454 0.124276 15.0874ZM4.55955 1.17188H15.4403L18.6646 14.1406H1.33537L4.55955 1.17188Z" fill="#BFBFBF"/>
<path d="M16.981 12.2418L14.6373 2.7887C14.5724 2.52731 14.3378 2.34375 14.0684 2.34375H5.93153C5.66221 2.34375 5.42753 2.52731 5.36268 2.7887L3.01893 12.2418C2.9756 12.4168 3.01512 12.6019 3.1262 12.7438C3.23729 12.8859 3.40742 12.9688 3.58778 12.9688H8.82811C9.15175 12.9688 9.41404 12.7065 9.41404 12.3828V10.7254C10.0961 10.9673 10.5859 11.619 10.5859 12.3828C10.5859 12.7065 10.8482 12.9688 11.1719 12.9688H16.4122C16.5925 12.9688 16.7627 12.8857 16.8738 12.7438C16.9848 12.6019 17.0244 12.4168 16.981 12.2418ZM11.6989 11.7969C11.4267 10.4613 10.2429 9.45313 8.82811 9.45313C8.50447 9.45313 8.24217 9.71542 8.24217 10.0391V11.7969H4.33668L5.50856 7.07031H8.82811C9.15175 7.07031 9.41404 6.80801 9.41404 6.48438V5.3125C9.41404 4.98886 9.15175 4.72656 8.82811 4.72656C8.50447 4.72656 8.24217 4.98886 8.24217 5.3125V5.89844H5.79909L6.38991 3.51562H13.6101L14.2009 5.89844H11.7578V5.3125C11.7578 4.98886 11.4955 4.72656 11.1719 4.72656C10.8482 4.72656 10.5859 4.98886 10.5859 5.3125V6.48438C10.5859 6.80801 10.8482 7.07031 11.1719 7.07031H14.4914L14.7917 8.28125H12.3437C12.0201 8.28125 11.7578 8.54355 11.7578 8.86719C11.7578 9.19083 12.0201 9.45313 12.3437 9.45313H15.0822L15.6633 11.7969H11.6989Z" fill="#BFBFBF"/>
</g>
<defs>
<clipPath id="clip0">
<rect width="20" height="20" fill="white"/>
</clipPath>
</defs>
</svg>
