<svg width="20" height="20" viewBox="0 0 20 20" fill="none" xmlns="http://www.w3.org/2000/svg">
<path d="M18.6688 6.82354H12.5065L11.3028 3.25703C11.2691 2.56757 10.6977 2.01703 10 2.01703C9.30237 2.01703 8.73096 2.56757 8.69729 3.25699L7.4935 6.82346H1.33121C0.597186 6.82354 0 7.42069 0 8.15475V16.6518C0 17.3858 0.597186 17.983 1.33121 17.983H2.75359C2.95374 17.983 3.11593 17.8207 3.11593 17.6206C3.11593 17.4205 2.95374 17.2583 2.75359 17.2583H1.33121C0.996756 17.2583 0.724647 16.9862 0.724647 16.6517V8.15475C0.724647 7.8203 0.996756 7.54819 1.33121 7.54819H7.75249C7.75288 7.54819 7.75327 7.54831 7.75366 7.54831C7.75405 7.54831 7.75448 7.54819 7.75487 7.54819H12.2451C12.2455 7.54819 12.2459 7.54831 12.2463 7.54831C12.2467 7.54831 12.2471 7.54819 12.2475 7.54819H18.6688C19.0032 7.54819 19.2754 7.8203 19.2754 8.15475V16.6518C19.2754 16.9862 19.0032 17.2583 18.6688 17.2583H3.91308C3.71292 17.2583 3.55074 17.4206 3.55074 17.6207C3.55074 17.8208 3.71292 17.983 3.91308 17.983H18.6688C19.4028 17.983 20 17.3858 20 16.6518V8.15475C20 7.42069 19.4028 6.82354 18.6688 6.82354ZM9.99998 2.74175C10.3196 2.74175 10.5797 3.00183 10.5797 3.32144C10.5797 3.64105 10.3196 3.90113 9.99998 3.90113C9.68037 3.90113 9.42029 3.64105 9.42029 3.32144C9.42029 3.00183 9.68037 2.74175 9.99998 2.74175ZM8.2583 6.82354L9.11678 4.28023C9.34932 4.4946 9.65955 4.62581 9.99994 4.62581C10.3403 4.62581 10.6506 4.4946 10.8831 4.28023L11.7415 6.82354H8.2583Z" fill="black" fill-opacity="0.25"/>
<path d="M12.6193 10.2754C12.4191 10.2754 12.2569 10.4376 12.2569 10.6377V12.9385L10.6462 10.4414C10.5591 10.3063 10.3934 10.2448 10.2393 10.2902C10.0852 10.3355 9.97937 10.4771 9.97937 10.6377V14.1687C9.97937 14.3688 10.1416 14.531 10.3417 14.531C10.5419 14.531 10.7041 14.3688 10.7041 14.1687V11.8679L12.3148 14.365C12.3828 14.4704 12.4985 14.531 12.6193 14.531C12.6533 14.531 12.6878 14.5261 12.7217 14.5162C12.8758 14.4709 12.9816 14.3293 12.9816 14.1687V10.6377C12.9816 10.4377 12.8194 10.2754 12.6193 10.2754Z" fill="black" fill-opacity="0.25"/>
<path d="M4.56796 12.743C5.01066 12.5373 5.31843 12.0887 5.31843 11.5693C5.31843 10.8559 4.73808 10.2755 4.02476 10.2755H3.25491C3.05476 10.2755 2.89257 10.4377 2.89257 10.6379V14.1688C2.89257 14.3689 3.05476 14.5311 3.25491 14.5311C3.45507 14.5311 3.61726 14.3689 3.61726 14.1688V12.863H3.80886L4.60909 14.3412C4.67464 14.4624 4.79933 14.5312 4.92808 14.5312C4.98628 14.5312 5.04542 14.5171 5.10023 14.4874C5.27624 14.3921 5.34163 14.1723 5.24636 13.9963L4.56796 12.743ZM4.02569 12.1382C4.02487 12.1382 4.02409 12.1382 4.02327 12.1382H3.61726V11.0001H4.02476C4.33851 11.0001 4.59378 11.2554 4.59378 11.5692C4.59378 11.8826 4.33898 12.1377 4.02569 12.1382Z" fill="black" fill-opacity="0.25"/>
<path d="M8.60543 12.775C8.80559 12.775 8.96777 12.6128 8.96777 12.4127C8.96777 12.2125 8.80559 12.0503 8.60543 12.0503H7.28758V11.0001H8.60543V11.0001C8.80559 11.0001 8.96777 10.8379 8.96777 10.6377C8.96777 10.4376 8.80559 10.2754 8.60543 10.2754H6.92524C6.72508 10.2754 6.5629 10.4376 6.5629 10.6377V14.1687C6.5629 14.3688 6.72508 14.531 6.92524 14.531H8.60543C8.80559 14.531 8.96777 14.3688 8.96777 14.1687C8.96777 13.9685 8.80559 13.8063 8.60543 13.8063H7.28758V12.775H8.60543V12.775Z" fill="black" fill-opacity="0.25"/>
<path d="M15.4382 13.1765C15.2381 13.1765 15.0759 13.3387 15.0759 13.5389V14.1688C15.0759 14.3689 15.2381 14.5311 15.4382 14.5311C15.6384 14.5311 15.8006 14.3689 15.8006 14.1688V13.5389C15.8006 13.3387 15.6383 13.1765 15.4382 13.1765Z" fill="black" fill-opacity="0.25"/>
<path d="M16.7451 10.2754H14.1315C13.9313 10.2754 13.7691 10.4376 13.7691 10.6377C13.7691 10.8379 13.9313 11.0001 14.1315 11.0001H15.076V12.5725C15.076 12.7727 15.2382 12.9349 15.4383 12.9349C15.6385 12.9349 15.8007 12.7727 15.8007 12.5725V11.0001H16.7451C16.9453 11.0001 17.1075 10.8379 17.1075 10.6377C17.1074 10.4377 16.9452 10.2754 16.7451 10.2754Z" fill="black" fill-opacity="0.25"/>
</svg>
