<svg width="12" height="12" viewBox="0 0 12 12" fill="none" xmlns="http://www.w3.org/2000/svg">
<path d="M4.49705 7.67907H9.75732C9.85461 7.67907 9.93345 7.60021 9.93345 7.50294V3.36987C9.93345 3.31583 9.90863 3.26476 9.86614 3.23139L7.23601 1.16485C7.17211 1.11467 7.08226 1.11467 7.01836 1.16485L4.38823 3.23139C4.34572 3.26478 4.32092 3.31583 4.32092 3.36987V7.50294C4.32092 7.60021 4.39976 7.67907 4.49705 7.67907ZM6.36398 7.32681V4.67319H7.89039V7.32681H6.36398ZM4.67317 3.45549L7.12719 1.52734L9.5812 3.45549V7.32681H8.24265V4.49707C8.24265 4.3998 8.16381 4.32094 8.06652 4.32094H6.18785C6.09056 4.32094 6.01173 4.3998 6.01173 4.49707V7.32681H4.67317V3.45549Z" fill="black"/>
<path d="M10.8846 7.32681C10.7873 7.32681 10.7084 7.40567 10.7084 7.50294C10.7084 7.60021 10.7873 7.67906 10.8846 7.67906H11.636C11.7333 7.67906 11.8122 7.60021 11.8122 7.50294C11.8122 7.40567 11.7333 7.32681 11.636 7.32681H11.4364V1.47946H11.636C11.7333 1.47946 11.8122 1.4006 11.8122 1.30333C11.8122 1.20606 11.7333 1.1272 11.636 1.1272H10.8846C10.7873 1.1272 10.7084 1.20606 10.7084 1.30333C10.7084 1.4006 10.7873 1.47946 10.8846 1.47946H11.0842V7.32681H10.8846Z" fill="black"/>
<path d="M11.8239 9.01761H9.75734C9.66005 9.01761 9.58121 9.09647 9.58121 9.19374C9.58121 9.29101 9.66005 9.36986 9.75734 9.36986H11.6477V11.6477H10.6849V11.0724C10.6849 10.9751 10.6061 10.8963 10.5088 10.8963C10.4115 10.8963 10.3327 10.9751 10.3327 11.0724V11.6477H9.182V10.8845C9.182 10.7873 9.10316 10.7084 9.00587 10.7084C8.90858 10.7084 8.82975 10.7873 8.82975 10.8845V11.6477H7.67906V11.0724C7.67906 10.9751 7.60023 10.8963 7.50294 10.8963C7.40564 10.8963 7.32681 10.9751 7.32681 11.0724V11.6477H6.17613V10.8845C6.17613 10.7873 6.09729 10.7084 6 10.7084C5.90271 10.7084 5.82387 10.7873 5.82387 10.8845V11.6477H4.67319V11.0724C4.67319 10.9751 4.59436 10.8963 4.49706 10.8963C4.39977 10.8963 4.32094 10.9751 4.32094 11.0724V11.6477H3.17025V10.8845C3.17025 10.7873 3.09142 10.7084 2.99413 10.7084C2.89684 10.7084 2.818 10.7873 2.818 10.8845V11.6477H1.66732V11.0724C1.66732 10.9751 1.58849 10.8963 1.49119 10.8963C1.3939 10.8963 1.31507 10.9751 1.31507 11.0724V11.6477H0.35225V10.6843C0.356149 10.6846 0.360023 10.6849 0.363992 10.6849H0.927593C1.02488 10.6849 1.10372 10.6061 1.10372 10.5088C1.10372 10.4115 1.02488 10.3327 0.927593 10.3327H0.363992C0.360023 10.3327 0.356149 10.333 0.35225 10.3333V9.18141C0.356149 9.18167 0.360023 9.182 0.363992 9.182H1.30333C1.40062 9.182 1.47945 9.10314 1.47945 9.00587C1.47945 8.9086 1.40062 8.82975 1.30333 8.82975H0.363992C0.360023 8.82975 0.356149 8.83007 0.35225 8.83033V7.67847C0.356149 7.67873 0.360023 7.67906 0.363992 7.67906H0.927593C1.02488 7.67906 1.10372 7.6002 1.10372 7.50294C1.10372 7.40567 1.02488 7.32681 0.927593 7.32681H0.363992C0.360023 7.32681 0.356149 7.32714 0.35225 7.3274V6.17554C0.356149 6.1758 0.360023 6.17613 0.363992 6.17613H1.30333C1.40062 6.17613 1.47945 6.09727 1.47945 6C1.47945 5.90273 1.40062 5.82387 1.30333 5.82387H0.363992C0.360023 5.82387 0.356149 5.8242 0.35225 5.82446V4.6726C0.356149 4.67286 0.360023 4.67319 0.363992 4.67319H0.927593C1.02488 4.67319 1.10372 4.59433 1.10372 4.49706C1.10372 4.3998 1.02488 4.32094 0.927593 4.32094H0.363992C0.360023 4.32094 0.356149 4.32127 0.35225 4.32153V3.16967C0.356149 3.16993 0.360023 3.17025 0.363992 3.17025H1.30333C1.40062 3.17025 1.47945 3.0914 1.47945 2.99413C1.47945 2.89686 1.40062 2.818 1.30333 2.818H0.363992C0.360023 2.818 0.356149 2.81833 0.35225 2.81859V1.66673C0.356149 1.66699 0.360023 1.66732 0.363992 1.66732H0.927593C1.02488 1.66732 1.10372 1.58846 1.10372 1.49119C1.10372 1.39393 1.02488 1.31507 0.927593 1.31507H0.363992C0.360023 1.31507 0.356149 1.3154 0.35225 1.31566V0.35225H2.63014V9.19374C2.63014 9.29101 2.70897 9.36986 2.80626 9.36986H8.89867C8.99596 9.36986 9.07479 9.29101 9.07479 9.19374C9.07479 9.09647 8.99596 9.01761 8.89867 9.01761H2.98239V0.176125C2.98239 0.0788571 2.90355 0 2.80626 0H0.176125C0.0788337 0 0 0.0788571 0 0.176125V11.8239C0 11.9211 0.0788337 12 0.176125 12H11.8239C11.9212 12 12 11.9211 12 11.8239V9.19374C12 9.09647 11.9212 9.01761 11.8239 9.01761Z" fill="black"/>
</svg>
