<svg width="20" height="20" viewBox="0 0 20 20" fill="none" xmlns="http://www.w3.org/2000/svg">
<path d="M15.9043 2.5H4.09578C3.67256 2.5 3.26667 2.67559 2.96741 2.98816C2.66815 3.30072 2.50003 3.72464 2.50003 4.16667V7.5C2.50003 7.94203 2.66815 8.36595 2.96741 8.67851C3.26667 8.99107 3.67256 9.16667 4.09578 9.16667H15.9043C16.3275 9.16667 16.7334 8.99107 17.0326 8.67851C17.3319 8.36595 17.5 7.94203 17.5 7.5V4.16667C17.5 3.72464 17.3319 3.30072 17.0326 2.98816C16.7334 2.67559 16.3275 2.5 15.9043 2.5ZM15.9043 10.8333H4.09578C3.67256 10.8333 3.26667 11.0089 2.96741 11.3215C2.66815 11.634 2.50003 12.058 2.50003 12.5V15.8333C2.50003 16.2754 2.66815 16.6993 2.96741 17.0118C3.26667 17.3244 3.67256 17.5 4.09578 17.5H15.9043C16.3275 17.5 16.7334 17.3244 17.0326 17.0118C17.3319 16.6993 17.5 16.2754 17.5 15.8333V12.5C17.5 12.058 17.3319 11.634 17.0326 11.3215C16.7334 11.0089 16.3275 10.8333 15.9043 10.8333Z" fill="#29AAE1"/>
</svg>
