<svg width="21" height="21" viewBox="0 0 21 21" fill="none" xmlns="http://www.w3.org/2000/svg">
<path d="M17.0235 10.5199V10.0449V9.56366L18.2235 8.51366C18.4447 8.31869 18.5899 8.0518 18.6334 7.76016C18.6768 7.46852 18.6158 7.1709 18.461 6.91991L16.986 4.41991C16.8764 4.23007 16.7188 4.0724 16.5291 3.9627C16.3393 3.853 16.124 3.79513 15.9048 3.79491C15.7689 3.79387 15.6338 3.81498 15.5048 3.85741L13.986 4.36991C13.7238 4.19566 13.4503 4.03907 13.1673 3.90116L12.8485 2.32616C12.7914 2.03841 12.6348 1.77993 12.4063 1.59597C12.1778 1.41201 11.8918 1.31429 11.5985 1.31991H8.67354C8.38022 1.31429 8.09427 1.41201 7.86575 1.59597C7.63723 1.77993 7.48069 2.03841 7.42354 2.32616L7.10478 3.90116C6.81974 4.03903 6.54414 4.19563 6.27979 4.36991L4.79228 3.83241C4.66185 3.79842 4.52677 3.78576 4.39228 3.79491C4.17308 3.79513 3.95779 3.853 3.76801 3.9627C3.57823 4.0724 3.42064 4.23007 3.31103 4.41991L1.83603 6.91991C1.69015 7.17053 1.63594 7.46407 1.68269 7.75026C1.72944 8.03645 1.87424 8.29749 2.09228 8.48866L3.27353 9.56991V10.5262L2.09228 11.5762C1.86808 11.7687 1.71932 12.0344 1.67241 12.3261C1.6255 12.6179 1.68347 12.9168 1.83603 13.1699L3.31103 15.6699C3.42064 15.8597 3.57823 16.0174 3.76801 16.1271C3.95779 16.2368 4.17308 16.2947 4.39228 16.2949C4.52813 16.2959 4.66323 16.2748 4.79228 16.2324L6.31103 15.7199C6.57325 15.8942 6.84677 16.0508 7.12979 16.1887L7.44853 17.7637C7.50569 18.0514 7.66223 18.3099 7.89075 18.4938C8.11927 18.6778 8.40522 18.7755 8.69854 18.7699H11.6485C11.9418 18.7755 12.2278 18.6778 12.4563 18.4938C12.6848 18.3099 12.8414 18.0514 12.8985 17.7637L13.2173 16.1887C13.5023 16.0508 13.7779 15.8942 14.0423 15.7199L15.5548 16.2324C15.6838 16.2748 15.8189 16.2959 15.9548 16.2949C16.174 16.2947 16.3893 16.2368 16.5791 16.1271C16.7688 16.0174 16.9264 15.8597 17.036 15.6699L18.461 13.1699C18.6069 12.9193 18.6611 12.6257 18.6144 12.3396C18.5676 12.0534 18.4228 11.7923 18.2048 11.6012L17.0235 10.5199ZM15.9048 15.0449L13.761 14.3199C13.2592 14.745 12.6857 15.0772 12.0673 15.3012L11.6235 17.5449H8.67354L8.22979 15.3262C7.6163 15.0959 7.04586 14.7642 6.54228 14.3449L4.39228 15.0449L2.91728 12.5449L4.61728 11.0449C4.50172 10.3979 4.50172 9.73562 4.61728 9.08866L2.91728 7.54491L4.39228 5.04491L6.53604 5.76991C7.03787 5.34484 7.61141 5.01257 8.22979 4.78866L8.67354 2.54491H11.6235L12.0673 4.76366C12.6808 4.99392 13.2512 5.32562 13.7548 5.74491L15.9048 5.04491L17.3798 7.54491L15.6798 9.04491C15.7954 9.69187 15.7954 10.3542 15.6798 11.0012L17.3798 12.5449L15.9048 15.0449Z" fill="#29AAE1"/>
<path d="M10.1486 13.7949C9.40688 13.7949 8.68186 13.575 8.06517 13.1629C7.44849 12.7509 6.96784 12.1652 6.68401 11.48C6.40018 10.7948 6.32592 10.0408 6.47062 9.31333C6.61531 8.58591 6.97246 7.91772 7.49691 7.39327C8.02136 6.86883 8.68954 6.51167 9.41697 6.36698C10.1444 6.22228 10.8984 6.29655 11.5836 6.58038C12.2688 6.8642 12.8545 7.34485 13.2666 7.96153C13.6786 8.57822 13.8986 9.30324 13.8986 10.0449C13.9036 10.5388 13.81 11.0287 13.6233 11.4859C13.4366 11.9431 13.1606 12.3585 12.8114 12.7077C12.4622 13.057 12.0468 13.333 11.5895 13.5197C11.1323 13.7064 10.6424 13.7999 10.1486 13.7949ZM10.1486 7.54492C9.81815 7.53723 9.48961 7.59663 9.18282 7.71954C8.87603 7.84245 8.59735 8.02632 8.36366 8.26002C8.12996 8.49372 7.94609 8.77239 7.82318 9.07918C7.70027 9.38598 7.64086 9.71451 7.64856 10.0449C7.64086 10.3753 7.70027 10.7039 7.82318 11.0107C7.94609 11.3175 8.12996 11.5961 8.36366 11.8298C8.59735 12.0635 8.87603 12.2474 9.18282 12.3703C9.48961 12.4932 9.81815 12.5526 10.1486 12.5449C10.479 12.5526 10.8075 12.4932 11.1143 12.3703C11.4211 12.2474 11.6998 12.0635 11.9335 11.8298C12.1672 11.5961 12.351 11.3175 12.4739 11.0107C12.5969 10.7039 12.6563 10.3753 12.6486 10.0449C12.6563 9.71451 12.5969 9.38598 12.4739 9.07918C12.351 8.77239 12.1672 8.49372 11.9335 8.26002C11.6998 8.02632 11.4211 7.84245 11.1143 7.71954C10.8075 7.59663 10.479 7.53723 10.1486 7.54492Z" fill="#29AAE1"/>
</svg>
