<svg width="16" height="17" viewBox="0 0 16 17" fill="none" xmlns="http://www.w3.org/2000/svg">
<g clip-path="url(#clip0)">
<path d="M15.0377 8.43146L8.18217 0.43573V5.22528H7.38579C5.41304 5.22528 3.55827 6.04242 2.16327 7.52618C0.768258 9.00995 0 10.9827 0 13.0811V16.4357L1.3157 14.9024C3.07567 12.8515 5.57395 11.6651 8.18217 11.6381V16.4273L15.0377 8.43146ZM0.881535 14.0253V13.0811C0.881535 11.2332 1.55809 9.49579 2.78657 8.18915C4.01505 6.88251 5.64843 6.1629 7.38579 6.1629H9.06359V2.85529L13.8448 8.43146L9.06359 14.0077V10.7001H8.27272C5.49028 10.7001 2.81458 11.908 0.881535 14.0253Z" fill="white"/>
</g>
<defs>
<clipPath id="clip0">
<rect width="15.0429" height="16" fill="white" transform="translate(0 0.43573)"/>
</clipPath>
</defs>
</svg>
