<svg width="16" height="18" viewBox="0 0 16 18" fill="none" xmlns="http://www.w3.org/2000/svg">
<path d="M4.25419 8.38225V5.2394C4.25419 4.19748 4.66809 3.19823 5.40484 2.46148C6.14159 1.72473 7.14083 1.31083 8.18276 1.31083C9.22468 1.31083 10.2239 1.72473 10.9607 2.46148C11.6974 3.19823 12.1113 4.19748 12.1113 5.2394V8.38225M2.68276 8.38225H13.6828C14.5506 8.38225 15.2542 9.08581 15.2542 9.95368V15.4537C15.2542 16.3216 14.5506 17.0251 13.6828 17.0251H2.68276C1.81488 17.0251 1.11133 16.3216 1.11133 15.4537V9.95368C1.11133 9.08581 1.81488 8.38225 2.68276 8.38225Z" stroke="#29AAE1" stroke-linecap="round" stroke-linejoin="round"/>
</svg>
